<svg xmlns="http://www.w3.org/2000/svg" width="112" height="32" viewBox="0 0 112 32" fill="none"><rect x="0.150302" y="0.150302" width="31.6993" height="31.6994" rx="5.8497" fill="#1D2022"></rect><rect x="0.150302" y="0.150302" width="31.6993" height="31.6994" rx="5.8497" stroke="#1D2022" stroke-width="0.300605"></rect><path fill-rule="evenodd" clip-rule="evenodd" d="M20.8143 16.5602C20.6467 16.5759 20.4597 16.6176 20.3125 16.5843C20.1644 16.55 20.0533 16.4415 20.0376 16.1559C20.0256 15.9278 20.0219 15.7377 20.1024 15.5949C20.1829 15.4512 20.3459 15.3566 20.6643 15.3232C21.8695 15.1962 22.8073 14.6092 23.3738 13.7506C23.9403 12.8929 24.1338 11.7635 23.8505 10.5507C23.7978 10.4051 23.7469 10.1807 23.6524 10.011C23.4673 9.69666 23.4201 9.72726 23.1942 9.80237C22.9906 9.87098 22.7952 9.98318 22.6777 10.1621C22.561 10.3383 22.5222 10.5813 22.6332 10.9086C22.8452 11.5502 22.7971 12.1919 22.5462 12.7334C22.2963 13.2749 21.8446 13.7172 21.2549 13.9611C20.7365 14.1762 20.2107 14.2161 19.7192 14.0918C19.2295 13.9694 18.774 13.682 18.401 13.2443C18.0677 12.8558 17.877 12.3671 17.8363 11.8673C17.7946 11.3685 17.902 10.8594 18.1658 10.4301C18.4574 9.95536 18.8721 9.60301 19.3461 9.40087C19.821 9.19965 20.3551 9.14773 20.8828 9.27569C20.9688 9.29609 21.0512 9.32947 21.1336 9.36099C21.2169 9.39159 21.3002 9.42034 21.3854 9.42868C21.6122 9.45187 21.7909 9.38418 21.9279 9.26642C22.063 9.14865 22.1593 8.98175 22.2213 8.80835C22.2861 8.62661 22.2917 8.57932 22.1797 8.50329C22.0686 8.42911 21.8399 8.32526 21.7261 8.27519C20.6134 7.80136 19.435 7.92283 18.4926 8.46898C17.5502 9.01513 16.8018 10.1067 16.6269 11.3316C16.5945 11.5578 16.551 11.7256 16.451 11.836C16.3519 11.9454 16.1983 11.9973 15.9465 11.9945C15.7104 11.9918 15.5595 11.95 15.4716 11.8518C15.3818 11.7535 15.3577 11.5986 15.3735 11.3668C15.4485 10.3042 15.9395 9.19316 16.6394 8.42169C17.3392 7.64837 18.289 7.09294 19.3618 6.89729C20.4977 6.69237 21.5724 6.83331 22.4888 7.27839C23.4053 7.7244 24.1653 8.47084 24.6726 9.47505C25.1613 10.444 25.3076 11.5094 25.1345 12.5201C24.9632 13.529 24.4726 14.4813 23.6904 15.2231C23.2877 15.6107 22.8471 15.9194 22.3676 16.1447C21.889 16.3691 21.3715 16.5101 20.8143 16.5602ZM21.3799 12.7584C21.9871 12.1714 22.0353 11.1821 21.4872 10.5821C20.8976 9.93861 19.8053 9.90894 19.1841 10.5209C18.6037 11.0921 18.5963 12.0889 19.1665 12.7009C19.7756 13.3555 20.7365 13.3796 21.3799 12.7584V12.7584V12.7584Z" fill="#F9B441"></path><path fill-rule="evenodd" clip-rule="evenodd" d="M12.7431 10.6391C12.158 10.0309 11.1703 9.98265 10.5714 10.5325C9.92896 11.1232 9.89934 12.2164 10.5103 12.8386C11.0815 13.42 12.0766 13.4283 12.6875 12.8562C13.3402 12.2461 13.3642 11.2836 12.7431 10.6391V10.6391V10.6391ZM16.1237 9.64884C16.3477 10.1282 16.4884 10.6466 16.5394 11.2057C16.5542 11.3726 16.5968 11.559 16.5634 11.7083C16.5301 11.8566 16.4218 11.967 16.1358 11.9836C15.909 11.9957 15.7173 11.9985 15.5748 11.9187C15.4322 11.8381 15.3378 11.6739 15.3045 11.355C15.1767 10.1477 14.5908 9.20932 13.7345 8.64277C12.8773 8.0753 11.7498 7.8815 10.539 8.16524C10.3937 8.21716 10.1696 8.26909 10.0002 8.36367C9.68736 8.54912 9.71698 8.59641 9.79196 8.82266C9.86047 9.02665 9.9734 9.2223 10.1502 9.33914C10.3279 9.4569 10.5705 9.49491 10.8972 9.3855C11.5378 9.17038 12.1784 9.22045 12.719 9.47081C13.2587 9.72116 13.7003 10.1737 13.9446 10.7652C14.1585 11.2826 14.1992 11.8103 14.0761 12.3017C13.953 12.7931 13.6669 13.2493 13.23 13.623C12.8421 13.9559 12.3534 14.1469 11.8544 14.1896C11.3564 14.2313 10.8491 14.1237 10.4205 13.8595C9.94563 13.5674 9.59386 13.1511 9.39206 12.6763C9.19119 12.2016 9.13935 11.6665 9.26709 11.138C9.28746 11.0527 9.32171 10.9702 9.35226 10.8867C9.38281 10.8033 9.41058 10.7198 9.41983 10.6345C9.44298 10.4064 9.37447 10.2284 9.25691 10.0911C9.13935 9.95483 8.97365 9.85932 8.80054 9.7972C8.61911 9.73229 8.57097 9.72673 8.49691 9.838C8.42008 9.95019 8.31733 10.1792 8.26827 10.2942C7.79524 11.4078 7.9165 12.5873 8.46174 13.5322C9.00697 14.4761 10.0567 15.1854 11.2796 15.3607C11.5064 15.3931 11.6739 15.4377 11.7831 15.5369C11.8933 15.6352 11.9461 15.7891 11.9424 16.0413C11.9396 16.2777 11.8979 16.4298 11.7998 16.5188C11.7017 16.606 11.5471 16.6319 11.3157 16.6162C10.2548 16.5402 9.18563 16.0895 8.41453 15.3885C7.64342 14.6875 7.08801 13.7371 6.89361 12.6624C6.68718 11.5237 6.82881 10.4481 7.27314 9.53015C7.71748 8.61125 8.46266 7.84997 9.46519 7.34277C10.4325 6.85133 11.4971 6.70575 12.5052 6.87822C13.5123 7.04976 14.463 7.5412 15.2045 8.3238C15.5915 8.72808 15.8988 9.16945 16.1237 9.64884Z" fill="#FF4D4F"></path><path fill-rule="evenodd" clip-rule="evenodd" d="M11.1782 15.4562C11.3458 15.4414 11.5318 15.3987 11.6799 15.433C11.829 15.4664 11.9391 15.5749 11.9549 15.8605C11.9669 16.0886 11.9706 16.2796 11.8901 16.4224C11.8095 16.5652 11.6466 16.6598 11.3282 16.6941C10.1229 16.8211 9.18519 17.4081 8.61959 18.2658C8.05399 19.1244 7.85959 20.2547 8.14286 21.4666C8.19469 21.6132 8.24653 21.8366 8.34095 22.0054C8.52609 22.3197 8.5733 22.29 8.8001 22.2149C9.00283 22.1472 9.19907 22.0341 9.31571 21.8552C9.43235 21.6781 9.47123 21.436 9.36107 21.1087C9.14724 20.4661 9.19537 19.8254 9.44624 19.2839C9.69617 18.7424 10.1479 18.301 10.7385 18.0562C11.256 17.8402 11.7818 17.8003 12.2733 17.9236C12.7639 18.047 13.2184 18.3335 13.5915 18.7711C13.9248 19.1606 14.1154 19.6492 14.1571 20.149C14.1988 20.6479 14.0914 21.1569 13.8285 21.5853C13.536 22.061 13.1212 22.4134 12.6473 22.6155C12.1724 22.8167 11.6392 22.8686 11.1116 22.7407C11.0255 22.7212 10.9431 22.6869 10.8598 22.6563C10.7765 22.6248 10.6931 22.597 10.608 22.5895C10.3812 22.5654 10.2035 22.6331 10.0665 22.7509C9.93037 22.8686 9.83503 23.0356 9.77301 23.208C9.70821 23.3907 9.70173 23.438 9.81374 23.514C9.92482 23.5891 10.1535 23.692 10.2683 23.7412C11.3809 24.215 12.5584 24.0935 13.5008 23.5474C14.4441 23.0012 15.0439 21.9097 15.2198 20.6848C15.2513 20.4586 15.2957 20.2907 15.3947 20.1813C15.4938 20.07 15.6475 20.0181 15.8983 20.0209C16.1344 20.0246 16.2862 20.0654 16.3741 20.1646C16.463 20.262 16.488 20.4178 16.4713 20.6496C16.3964 21.7113 16.0539 22.8223 15.354 23.5947C14.6542 24.3671 13.7054 24.9234 12.6325 25.1191C11.4967 25.3259 10.4228 25.1831 9.50548 24.7389C8.58812 24.2929 7.82904 23.5465 7.32084 22.5432C6.83207 21.5733 6.68488 20.5079 6.85706 19.4981C7.02924 18.4893 7.51986 17.536 8.30208 16.7942C8.70475 16.4067 9.14538 16.0979 9.62397 15.8726C10.1035 15.6482 10.6209 15.5072 11.1782 15.4562ZM10.6127 19.2588C10.0054 19.8458 9.95727 20.8342 10.5062 21.4341C11.0949 22.0786 12.1882 22.1073 12.8093 21.4953C13.3888 20.9232 13.3972 19.9264 12.8269 19.3144C12.2169 18.6607 11.256 18.6375 10.6127 19.2588V19.2588V19.2588Z" fill="#419BF9"></path><path fill-rule="evenodd" clip-rule="evenodd" d="M15.4723 20.8125C15.4575 20.6456 15.4158 20.4583 15.4491 20.3099C15.4824 20.1615 15.5908 20.0512 15.8759 20.0345C16.1036 20.0225 16.2943 20.0197 16.4368 20.1003C16.5803 20.1792 16.6747 20.3433 16.7081 20.6632C16.8349 21.8705 17.4209 22.8098 18.2781 23.3763C19.1352 23.9429 20.2618 24.1367 21.4726 23.8529C21.618 23.801 21.8429 23.7491 22.0114 23.6554C22.3252 23.469 22.2946 23.4218 22.2197 23.1955C22.1521 22.9924 22.0392 22.7959 21.8614 22.679C21.6837 22.5613 21.4421 22.5233 21.1153 22.6336C20.4738 22.8478 19.8341 22.7986 19.2935 22.5474C18.7529 22.297 18.3114 21.8445 18.067 21.2538C17.8532 20.7355 17.8134 20.2088 17.9355 19.7155C18.0596 19.225 18.3456 18.7688 18.7816 18.3961C19.1704 18.0623 19.6592 17.8703 20.1572 17.8286C20.6552 17.7869 21.1634 17.8944 21.592 18.1587C22.066 18.4508 22.4187 18.8662 22.6196 19.3409C22.8214 19.8175 22.8723 20.3516 22.7455 20.8802C22.7251 20.9655 22.6908 21.0489 22.6603 21.1324C22.6297 21.2158 22.6011 21.2993 22.5927 21.3837C22.5696 21.6118 22.6372 21.7898 22.7547 21.927C22.8723 22.0633 23.0398 22.1588 23.212 22.221C23.3934 22.2859 23.4407 22.2924 23.5156 22.1802C23.5915 22.0689 23.6952 21.8389 23.7443 21.7249C24.2173 20.6094 24.0951 19.4309 23.5508 18.486C23.0047 17.5421 22.0355 16.8327 20.8126 16.6575C20.5867 16.625 20.4595 16.5814 20.3493 16.4813C20.2391 16.383 20.1873 16.2291 20.1901 15.9778C20.1938 15.7404 20.2354 15.5884 20.3326 15.5003C20.4317 15.4113 20.546 15.3871 20.7774 15.4029C21.8383 15.478 22.826 15.9296 23.598 16.6297C24.3701 17.3307 24.9245 18.282 25.1189 19.3567C25.3254 20.4944 25.1828 21.57 24.7385 22.4889C24.2941 23.4069 23.549 24.1673 22.5474 24.6763C21.5791 25.1678 20.5155 25.3143 19.5074 25.1409C18.5002 24.9684 17.5486 24.477 16.808 23.6953C16.422 23.291 16.1128 22.8496 15.8879 22.3693C15.6639 21.889 15.5232 21.3716 15.4723 20.8125ZM19.2686 21.379C19.8545 21.9873 20.8423 22.0355 21.4403 21.4856C22.0827 20.8959 22.1123 19.8008 21.5023 19.1786C20.9302 18.5991 19.936 18.5898 19.325 19.1619C18.6715 19.773 18.6474 20.7346 19.2686 21.379V21.379V21.379Z" fill="#65C178"></path><path fill-rule="evenodd" clip-rule="evenodd" d="M16.7109 8.40442C17.4107 7.63109 18.2966 7.07567 19.3695 6.88002C20.5053 6.6751 21.5791 6.81604 22.4956 7.26112C23.4129 7.70713 24.172 8.45356 24.6793 9.45777C25.169 10.4267 25.3153 11.4922 25.1421 12.5029C24.9709 13.5117 24.4793 14.464 23.6981 15.2058C23.2954 15.5934 22.8548 15.9022 22.3752 16.1275C21.8967 16.3519 21.3792 16.4928 20.821 16.5429C20.6544 16.5586 20.4674 16.6004 20.3202 16.567C20.1712 16.5327 20.061 16.4242 20.0453 16.1386C20.0323 15.9105 20.0295 15.7204 20.1091 15.5776C20.1906 15.4339 20.3526 15.3393 20.672 15.3059C21.8763 15.1789 22.8149 14.5919 23.3805 13.7333C23.9471 12.8756 24.1405 11.7462 23.8582 10.5334C23.8054 10.3878 23.7545 10.1634 23.6592 9.99372C23.475 9.67939 23.4278 9.70999 23.2019 9.78509C22.9973 9.85371 22.802 9.96591 22.6853 10.1449C22.5678 10.321 22.5308 10.564 22.64 10.8913C22.8529 11.533 22.8048 12.1746 22.5539 12.7161C22.303 13.2576 21.8522 13.6999 21.2616 13.9438C20.7442 14.1589 20.2174 14.1988 19.7268 14.0745C19.2362 13.9521 18.7817 13.6647 18.4086 13.227C18.0763 12.8385 17.8847 12.3499 17.843 11.8501C17.8014 11.3512 17.9088 10.8422 18.1735 10.4128C18.4642 9.93809 18.8798 9.58573 19.3538 9.38359C19.8287 9.18238 20.3628 9.13045 20.8904 9.25841C20.9756 9.27881 21.058 9.3122 21.1413 9.34372C21.2237 9.37432 21.307 9.40307 21.3931 9.41141C21.6199 9.43459 21.7976 9.3669 21.9346 9.24914C22.0707 9.13138 22.167 8.96448 22.229 8.79108C22.2938 8.60934 22.3003 8.56205 22.1873 8.48602C22.0762 8.41184 21.8467 8.30798 21.7328 8.25791C20.621 7.78409 19.4436 7.90556 18.5003 8.45171M21.3875 12.7411C21.9947 12.1542 22.0429 11.1648 21.4949 10.5649C20.9052 9.92135 19.8129 9.89168 19.1927 10.5037C18.6113 11.0748 18.603 12.0716 19.1741 12.6836C19.7833 13.3383 20.7441 13.3624 21.3875 12.7411" fill="#F9B441"></path><path d="M104.898 26.8182C103.366 26.8182 102.044 26.5 100.93 25.8636C99.8233 25.2206 98.9715 24.3125 98.3749 23.1392C97.7783 21.9593 97.48 20.5705 97.48 18.973C97.48 17.402 97.7783 16.0232 98.3749 14.8366C98.9781 13.6435 99.82 12.7154 100.9 12.0526C101.981 11.383 103.25 11.0483 104.709 11.0483C105.65 11.0483 106.538 11.2008 107.373 11.5057C108.215 11.804 108.958 12.268 109.601 12.8977C110.25 13.5275 110.761 14.3295 111.132 15.304C111.503 16.2718 111.689 17.4252 111.689 18.7642V19.8679H99.1704V17.4418H108.239C108.232 16.7524 108.083 16.1392 107.791 15.6023C107.499 15.0587 107.092 14.6312 106.568 14.3196C106.051 14.008 105.448 13.8523 104.758 13.8523C104.023 13.8523 103.376 14.0313 102.82 14.3892C102.263 14.7405 101.828 15.2045 101.517 15.7812C101.212 16.3513 101.056 16.9777 101.05 17.6605V19.7784C101.05 20.6667 101.212 21.429 101.537 22.0653C101.862 22.6951 102.316 23.179 102.899 23.517C103.482 23.8485 104.165 24.0142 104.947 24.0142C105.471 24.0142 105.945 23.9413 106.369 23.7955C106.793 23.643 107.161 23.4209 107.473 23.1293C107.784 22.8376 108.02 22.4763 108.179 22.0455L111.54 22.4233C111.328 23.3116 110.923 24.0871 110.327 24.75C109.737 25.4063 108.981 25.9167 108.06 26.2813C107.138 26.6392 106.084 26.8182 104.898 26.8182Z" fill="#1D2022"></path><path d="M91.1155 26.5199V11.2472H94.7149V26.5199H91.1155ZM92.9251 9.07955C92.3551 9.07955 91.8645 8.89063 91.4535 8.51278C91.0426 8.12831 90.8371 7.66761 90.8371 7.13068C90.8371 6.58712 91.0426 6.12642 91.4535 5.74858C91.8645 5.36411 92.3551 5.17188 92.9251 5.17188C93.5018 5.17188 93.9924 5.36411 94.3967 5.74858C94.8077 6.12642 95.0132 6.58712 95.0132 7.13068C95.0132 7.66761 94.8077 8.12831 94.3967 8.51278C93.9924 8.89063 93.5018 9.07955 92.9251 9.07955Z" fill="#1D2022"></path><path d="M81.8973 26.8182C80.3726 26.8182 79.0634 26.4834 77.9697 25.8139C76.8826 25.1444 76.044 24.2197 75.4541 23.0398C74.8707 21.8532 74.5791 20.4877 74.5791 18.9432C74.5791 17.392 74.8774 16.0232 75.474 14.8366C76.0706 13.6435 76.9124 12.7154 77.9995 12.0526C79.0933 11.383 80.3859 11.0483 81.8774 11.0483C83.117 11.0483 84.214 11.277 85.1686 11.7344C86.1297 12.1851 86.8954 12.8248 87.4654 13.6534C88.0355 14.4754 88.3603 15.4366 88.4399 16.5369H84.9995C84.8603 15.8011 84.5289 15.188 84.0052 14.6974C83.4882 14.2003 82.7955 13.9517 81.9271 13.9517C81.1913 13.9517 80.545 14.1506 79.9882 14.5483C79.4313 14.9394 78.9972 15.5028 78.6856 16.2386C78.3807 16.9744 78.2282 17.8561 78.2282 18.8835C78.2282 19.9242 78.3807 20.8191 78.6856 21.5682C78.9905 22.3106 79.4181 22.884 79.9683 23.2884C80.5251 23.6861 81.178 23.8849 81.9271 23.8849C82.4574 23.8849 82.9313 23.7855 83.349 23.5866C83.7732 23.3812 84.1278 23.0862 84.4129 22.7017C84.6979 22.3172 84.8935 21.8499 84.9995 21.2997H88.4399C88.3537 22.3802 88.0355 23.3381 87.4853 24.1733C86.9351 25.0019 86.1861 25.6515 85.2382 26.1222C84.2902 26.5862 83.1766 26.8182 81.8973 26.8182Z" fill="#1D2022"></path><path d="M65.1421 26.8182C63.6506 26.8182 62.358 26.4901 61.2643 25.8338C60.1705 25.1776 59.322 24.2595 58.7188 23.0795C58.1222 21.8996 57.8239 20.5208 57.8239 18.9432C57.8239 17.3655 58.1222 15.9834 58.7188 14.7969C59.322 13.6103 60.1705 12.6889 61.2643 12.0327C62.358 11.3764 63.6506 11.0483 65.1421 11.0483C66.6336 11.0483 67.9262 11.3764 69.0199 12.0327C70.1137 12.6889 70.9589 13.6103 71.5554 14.7969C72.1587 15.9834 72.4603 17.3655 72.4603 18.9432C72.4603 20.5208 72.1587 21.8996 71.5554 23.0795C70.9589 24.2595 70.1137 25.1776 69.0199 25.8338C67.9262 26.4901 66.6336 26.8182 65.1421 26.8182ZM65.162 23.9347C65.9707 23.9347 66.6468 23.7126 67.1904 23.2685C67.734 22.8177 68.1383 22.2145 68.4035 21.4588C68.6752 20.7031 68.8111 19.8613 68.8111 18.9332C68.8111 17.9986 68.6752 17.1534 68.4035 16.3977C68.1383 15.6354 67.734 15.0289 67.1904 14.5781C66.6468 14.1274 65.9707 13.902 65.162 13.902C64.3334 13.902 63.644 14.1274 63.0938 14.5781C62.5502 15.0289 62.1426 15.6354 61.8708 16.3977C61.6056 17.1534 61.4731 17.9986 61.4731 18.9332C61.4731 19.8613 61.6056 20.7031 61.8708 21.4588C62.1426 22.2145 62.5502 22.8177 63.0938 23.2685C63.644 23.7126 64.3334 23.9347 65.162 23.9347Z" fill="#1D2022"></path><path d="M51.8024 11.7543C51.7096 10.8859 51.3185 10.2098 50.6291 9.72585C49.9464 9.24195 49.0581 9 47.9644 9C47.1954 9 46.5359 9.116 45.9857 9.34801C45.4355 9.58002 45.0146 9.89489 44.7229 10.2926C44.4312 10.6903 44.2821 11.1444 44.2754 11.6548C44.2754 12.0791 44.3716 12.447 44.5638 12.7585C44.7627 13.0701 45.0311 13.3352 45.3692 13.554C45.7073 13.7661 46.0818 13.9451 46.4928 14.0909C46.9038 14.2367 47.3181 14.3594 47.7357 14.4588L49.6448 14.9361C50.4137 15.1151 51.1528 15.357 51.8621 15.6619C52.578 15.9669 53.2177 16.3513 53.7811 16.8153C54.3512 17.2794 54.802 17.8395 55.1334 18.4957C55.4648 19.152 55.6306 19.9209 55.6306 20.8026C55.6306 21.9957 55.3256 23.0464 54.7158 23.9545C54.1059 24.8561 53.2243 25.562 52.0709 26.0724C50.9241 26.5762 49.5354 26.8281 47.9047 26.8281C46.3204 26.8281 44.945 26.5829 43.7783 26.0923C42.6182 25.6018 41.7101 24.8859 41.0539 23.9446C40.4042 23.0033 40.0529 21.8565 39.9999 20.5043H43.6291C43.6822 21.2135 43.9009 21.8035 44.2854 22.2741C44.6699 22.7448 45.1703 23.0961 45.7868 23.3281C46.4099 23.5601 47.1059 23.6761 47.8749 23.6761C48.677 23.6761 49.3796 23.5568 49.9828 23.3182C50.5927 23.0729 51.07 22.7348 51.4147 22.304C51.7593 21.8665 51.935 21.3561 51.9416 20.7727C51.935 20.2424 51.7792 19.8049 51.4743 19.4602C51.1694 19.1089 50.7418 18.8172 50.1916 18.5852C49.6481 18.3466 49.0117 18.1345 48.2825 17.9489L45.9658 17.3523C44.2887 16.9214 42.9629 16.2685 41.9885 15.3935C41.0207 14.5118 40.5368 13.3419 40.5368 11.8835C40.5368 10.6837 40.8616 9.63305 41.5112 8.73153C42.1675 7.83002 43.0591 7.13068 44.186 6.63352C45.3129 6.12973 46.5889 5.87784 48.0141 5.87784C49.4592 5.87784 50.7253 6.12973 51.8124 6.63352C52.9061 7.13068 53.7646 7.82339 54.3877 8.71165C55.0108 9.59328 55.3323 10.6075 55.3522 11.7543H51.8024Z" fill="#1D2022"></path></svg>